<?xml version="1.0" standalone="no"?>
<!DOCTYPE svg PUBLIC "-//W3C//DTD SVG 20010904//EN"
 "http://www.w3.org/TR/2001/REC-SVG-20010904/DTD/svg10.dtd">
<svg version="1.0" xmlns="http://www.w3.org/2000/svg"
 width="230.000000pt" height="230.000000pt" viewBox="0 0 230.000000 230.000000"
 preserveAspectRatio="xMidYMid meet">

<g transform="translate(0.000000,230.000000) scale(0.100000,-0.100000)"
fill="#000000" stroke="none">
<path d="M1126 2089 c-41 -48 -54 -80 -64 -153 -20 -149 26 -263 198 -491 62
-82 126 -177 142 -211 34 -73 46 -171 29 -241 -12 -49 -54 -123 -70 -123 -4 0
-11 27 -14 60 -9 84 -48 154 -167 300 -213 262 -239 308 -249 433 l-7 82 -36
-37 c-48 -50 -72 -123 -71 -218 1 -130 35 -201 204 -417 179 -230 221 -388
136 -520 l-31 -48 -8 38 c-16 74 -64 150 -257 407 -56 74 -114 161 -129 192
-15 31 -34 57 -42 57 -18 1 -147 -44 -253 -89 -144 -60 -291 -177 -337 -266
-35 -69 -35 -178 -1 -249 30 -61 127 -158 203 -203 139 -83 337 -146 558 -178
141 -20 476 -15 610 10 286 54 497 146 622 272 80 80 108 141 108 234 0 97
-23 145 -114 235 -100 99 -261 179 -473 235 l-43 11 0 59 c0 109 -46 196 -235
445 -122 162 -157 232 -163 331 -3 41 -8 74 -12 74 -5 0 -20 -14 -34 -31z"/>
</g>
</svg>
